<?xml version="1.0" encoding="UTF-8" standalone="no"?>
<!-- Created with Inkscape (http://www.inkscape.org/) -->

<svg
   xmlns:dc="http://purl.org/dc/elements/1.1/"
   xmlns:cc="http://creativecommons.org/ns#"
   xmlns:rdf="http://www.w3.org/1999/02/22-rdf-syntax-ns#"
   xmlns:svg="http://www.w3.org/2000/svg"
   xmlns="http://www.w3.org/2000/svg"
   xmlns:sodipodi="http://sodipodi.sourceforge.net/DTD/sodipodi-0.dtd"
   xmlns:inkscape="http://www.inkscape.org/namespaces/inkscape"
   version="1.1"
   id="svg2"
   xml:space="preserve"
   width="1333.3333"
   height="1333.3333"
   viewBox="0 0 1333.3333 1333.3333"
   sodipodi:docname="JELLYPLUIE_LOGO.svg"
   inkscape:version="0.92.3 (2405546, 2018-03-11)"
   inkscape:export-filename="/home/wladimir/Documentos/Jogos_Digitais/Semestre_IV/Roteirização/logo.png"
   inkscape:export-xdpi="96"
   inkscape:export-ydpi="96"><metadata
     id="metadata8"><rdf:RDF><cc:Work
         rdf:about=""><dc:format>image/svg+xml</dc:format><dc:type
           rdf:resource="http://purl.org/dc/dcmitype/StillImage" /><dc:title /></cc:Work></rdf:RDF></metadata><defs
     id="defs6"><clipPath
       clipPathUnits="userSpaceOnUse"
       id="clipPath20"><path
         d="M 0,1000 H 1000 V 0 H 0 Z"
         id="path18"
         inkscape:connector-curvature="0" /></clipPath><clipPath
       clipPathUnits="userSpaceOnUse"
       id="clipPath50"><path
         d="M 0,1000 H 1000 V 0 H 0 Z"
         id="path48"
         inkscape:connector-curvature="0" /></clipPath></defs><sodipodi:namedview
     pagecolor="#ffffff"
     bordercolor="#666666"
     borderopacity="1"
     objecttolerance="10"
     gridtolerance="10"
     guidetolerance="10"
     inkscape:pageopacity="0"
     inkscape:pageshadow="2"
     inkscape:window-width="1366"
     inkscape:window-height="717"
     id="namedview4"
     showgrid="false"
     inkscape:zoom="0.35400002"
     inkscape:cx="540.54427"
     inkscape:cy="671.7838"
     inkscape:window-x="0"
     inkscape:window-y="25"
     inkscape:window-maximized="1"
     inkscape:current-layer="g10" /><g
     id="g10"
     inkscape:groupmode="layer"
     inkscape:label="JELLYPLUIE_LOGO"
     transform="matrix(1.3333333,0,0,-1.3333333,0,1333.3333)"><g
       id="g3851"
       transform="matrix(1.4803189,0,0,1.4803189,-240.15944,-141.25806)"><g
         transform="translate(13.528807)"
         id="g44"><g
           clip-path="url(#clipPath50)"
           id="g46"><g
             transform="translate(410.4849,413.5)"
             id="g52"><path
               inkscape:connector-curvature="0"
               id="path54"
               style="fill:#3e97b9;fill-opacity:1;fill-rule:nonzero;stroke:none"
               d="m 0,0 c -9.665,4.314 -19.949,7.188 -30.416,8.521 -10.472,1.331 -21.109,1.031 -31.49,-0.632 -20.782,-3.378 -40.383,-13.127 -55.641,-27.464 -15.316,-14.276 -26.311,-33.066 -31.089,-53.362 l -0.851,-3.813 -0.667,-3.848 c -0.246,-1.279 -0.396,-2.573 -0.544,-3.866 -0.136,-1.294 -0.353,-2.58 -0.423,-3.88 l -0.268,-3.895 c -0.092,-1.297 -0.065,-2.601 -0.104,-3.901 -0.09,-2.6 0.006,-5.203 0.146,-7.798 0.604,-10.383 2.742,-20.657 6.3,-30.406 l 2.838,-7.778 -6.201,5.519 c -28.455,25.332 -51.749,56.513 -67.888,91.124 -16.147,34.61 -25,72.602 -26.008,110.814 -0.548,19.104 0.821,38.278 4.155,57.119 3.338,18.839 8.612,37.341 15.716,55.118 14.204,35.552 35.708,68.209 62.897,95.228 27.181,27.02 59.906,48.446 95.579,62.502 35.658,14.096 74.238,20.734 112.551,19.463 38.316,-1.206 76.394,-10.272 111.075,-26.639 34.693,-16.322 66.004,-39.786 91.362,-68.528 l 10.124,-11.475 -14.282,5.429 c -17.71,6.732 -37.311,8.482 -55.972,5.013 -18.659,-3.402 -36.381,-11.994 -50.546,-24.687 -14.223,-12.621 -24.903,-29.171 -30.566,-47.341 -2.774,-9.097 -4.426,-18.558 -4.65,-28.091 -0.352,-9.528 0.703,-19.093 2.968,-28.355 l 2.606,-10.658 -7.771,7.698 c -7.911,7.837 -18.162,13.29 -29.116,15.398 -10.945,2.138 -22.549,1.028 -32.863,-3.292 C 30.628,134.96 21.605,127.549 15.344,118.242 9.05,108.949 5.612,97.768 5.561,86.5 L 5.298,87.603 C 8.235,81.862 11.47,76.13 14.774,70.506 18.088,64.871 21.534,59.309 25.086,53.816 32.193,42.832 39.745,32.13 47.766,21.794 55.777,11.454 64.23,1.446 73.265,-8.01 c 4.514,-4.729 9.152,-9.342 13.947,-13.783 4.806,-4.432 9.755,-8.705 14.857,-12.786 5.093,-4.095 10.384,-7.937 15.822,-11.552 5.449,-3.596 11.022,-7.021 16.82,-10.025 11.563,-6.047 23.82,-10.878 36.595,-13.661 12.744,-2.892 25.959,-3.638 38.994,-2.353 6.515,0.696 12.964,1.949 19.312,3.607 6.344,1.695 12.519,3.961 18.589,6.48 -6.014,-2.644 -12.151,-5.043 -18.478,-6.876 -6.331,-1.795 -12.785,-3.191 -19.33,-4.029 -6.549,-0.778 -13.16,-1.055 -19.762,-0.808 -6.605,0.222 -13.175,1.137 -19.654,2.435 -12.978,2.594 -25.482,7.272 -37.3,13.194 -11.816,5.959 -22.936,13.235 -33.382,21.33 -5.22,4.055 -10.286,8.304 -15.208,12.714 -4.912,4.42 -9.664,9.014 -14.292,13.726 C 61.532,-0.975 52.855,9.005 44.62,19.326 36.407,29.667 28.667,40.378 21.371,51.383 17.723,56.886 14.182,62.461 10.77,68.118 7.354,73.789 4.057,79.471 0.94,85.397 L 0.681,85.89 0.677,86.5 c -0.086,12.205 3.514,24.448 10.274,34.667 6.711,10.247 16.509,18.463 27.833,23.247 11.308,4.839 24.046,6.172 36.143,3.912 12.116,-2.23 23.513,-8.169 32.343,-16.778 l -5.165,-2.961 c -2.478,9.788 -3.677,19.921 -3.39,30.021 0.159,10.109 1.826,20.18 4.703,29.882 5.863,19.392 17.199,37.062 32.282,50.597 15.036,13.603 33.922,22.891 53.872,26.628 19.938,3.804 40.911,2.043 59.96,-5.087 l -4.159,-6.046 c -24.819,27.848 -55.252,50.684 -89.029,66.479 -33.747,15.856 -70.755,24.603 -108.005,25.716 -37.251,1.265 -74.746,-5.103 -109.432,-18.757 -34.708,-13.599 -66.549,-34.413 -93.081,-60.625 -26.59,-26.167 -47.694,-57.874 -61.708,-92.462 -14.037,-34.59 -20.842,-72.075 -20.066,-109.445 0.682,-37.371 9.046,-74.619 24.591,-108.69 15.446,-34.112 37.986,-65.029 65.742,-90.298 l -3.362,-2.258 c -7.249,20.347 -8.154,42.781 -2.885,63.612 5.233,20.856 16.797,40 32.693,54.336 15.849,14.386 35.972,23.932 57.061,26.988 10.54,1.489 21.275,1.547 31.781,-0.005 C -19.826,7.615 -9.573,4.514 0,0" /></g><g
             transform="translate(524.3398,396.7686)"
             id="g56"><path
               inkscape:connector-curvature="0"
               id="path58"
               style="fill:#3e97b9;fill-opacity:1;fill-rule:nonzero;stroke:none"
               d="m 0,0 c 5.238,-5.195 10.999,-9.875 16.966,-14.212 5.992,-4.312 12.265,-8.228 18.805,-11.617 6.54,-3.386 13.346,-6.247 20.364,-8.394 7.021,-2.119 14.252,-3.523 21.538,-3.978 7.28,-0.44 14.614,0.01 21.718,1.571 1.784,0.35 3.532,0.852 5.289,1.313 1.732,0.551 3.476,1.058 5.171,1.716 1.72,0.587 3.378,1.338 5.057,2.027 1.636,0.791 3.307,1.508 4.896,2.393 6.452,3.356 12.446,7.561 17.987,12.292 5.545,4.728 10.658,9.974 15.344,15.585 l 3.443,4.269 3.314,4.381 3.385,4.482 3.534,4.379 c 4.81,5.763 10.049,11.233 15.917,16.09 5.917,4.764 12.533,8.948 19.997,11.382 3.724,1.193 7.636,1.927 11.589,2.059 3.952,0.139 7.926,-0.33 11.729,-1.348 7.619,-2.099 14.39,-6.267 20.131,-11.277 5.737,-5.055 10.639,-10.875 14.896,-17.06 8.504,-12.391 14.883,-26.011 19.471,-40.141 l -0.473,-0.165 c -2.901,6.795 -6.163,13.437 -9.82,19.828 -3.617,6.41 -7.601,12.599 -12.022,18.41 -4.452,5.777 -9.324,11.23 -14.898,15.756 -5.533,4.536 -11.804,8.151 -18.552,9.812 -6.714,1.767 -13.838,1.405 -20.457,-0.819 -3.317,-1.088 -6.544,-2.536 -9.635,-4.281 -3.102,-1.731 -6.018,-3.831 -8.864,-6.021 -5.651,-4.461 -10.838,-9.598 -15.633,-15.099 l -3.525,-4.197 -3.394,-4.317 -3.475,-4.411 -3.615,-4.307 c -4.903,-5.674 -10.254,-10.986 -16.06,-15.769 -5.8,-4.785 -12.078,-9.034 -18.83,-12.404 -1.663,-0.889 -3.412,-1.608 -5.122,-2.397 -1.757,-0.688 -3.49,-1.435 -5.287,-2.017 -1.77,-0.652 -3.592,-1.15 -5.398,-1.69 -1.832,-0.449 -3.654,-0.937 -5.511,-1.27 -7.396,-1.493 -14.992,-1.829 -22.478,-1.249 -7.491,0.638 -14.858,2.245 -21.961,4.566 -7.098,2.347 -13.933,5.405 -20.465,8.976 -6.532,3.574 -12.765,7.663 -18.694,12.137 -5.908,4.501 -11.574,9.318 -16.735,14.673 z" /></g></g></g><flowRoot
         transform="matrix(0.75000002,0,0,-0.75000002,4.0610053,1014.8305)"
         style="font-style:normal;font-variant:normal;font-weight:normal;font-stretch:normal;font-size:40px;line-height:1.25;font-family:Sawasdee;-inkscape-font-specification:Sawasdee;letter-spacing:0px;word-spacing:0px;fill:#3e97b9;fill-opacity:1;stroke:none"
         id="flowRoot70"
         xml:space="preserve"><flowRegion
           style="font-style:normal;font-variant:normal;font-weight:normal;font-stretch:normal;font-family:Sawasdee;-inkscape-font-specification:Sawasdee;fill:#3e97b9;fill-opacity:1"
           id="flowRegion72"><rect
             style="font-style:normal;font-variant:normal;font-weight:normal;font-stretch:normal;font-family:Sawasdee;-inkscape-font-specification:Sawasdee;fill:#3e97b9;fill-opacity:1"
             y="1005.6497"
             x="152.54236"
             height="231.6384"
             width="1016.9491"
             id="rect74" /></flowRegion><flowPara
           style="font-style:normal;font-variant:normal;font-weight:normal;font-stretch:normal;font-size:192px;font-family:Sawasdee;-inkscape-font-specification:Sawasdee;text-align:center;letter-spacing:-12.94998741px;text-anchor:middle;fill:#3e97b9;fill-opacity:1"
           id="flowPara76">Jelly <flowSpan
   id="flowSpan3819"
   style="fill:#ffffff">Pluie</flowSpan></flowPara></flowRoot></g></g></svg>